<svg width="29" height="29" viewBox="0 0 29 29" fill="none" xmlns="http://www.w3.org/2000/svg">
<g clip-path="url(#clip0)">
<path d="M25.9515 7.07073C26.1987 7.07073 26.3992 6.86703 26.3992 6.61563V4.64324H27.7421C27.9893 4.64324 28.1897 4.43954 28.1897 4.18814V0.54736C28.1897 0.295964 27.9893 0.0922623 27.7421 0.0922623H24.161C23.9138 0.0922623 23.7134 0.295964 23.7134 0.54736V1.91265H4.61438V0.54736C4.61438 0.295964 4.41396 0.0922623 4.16675 0.0922623H0.585694C0.338481 0.0922623 0.138062 0.295964 0.138062 0.54736V4.18814C0.138062 4.43954 0.338481 4.64324 0.585694 4.64324H1.92859V24.0607H0.585694C0.338481 24.0607 0.138062 24.2644 0.138062 24.5158V28.1566C0.138062 28.408 0.338481 28.6117 0.585694 28.6117H4.16675C4.41396 28.6117 4.61438 28.408 4.61438 28.1566V26.7913H23.7134V28.1566C23.7134 28.408 23.9138 28.6117 24.161 28.6117H27.7421C27.9893 28.6117 28.1897 28.408 28.1897 28.1566V24.5158C28.1897 24.2644 27.9893 24.0607 27.7421 24.0607H26.3992V8.43603C26.3992 8.18463 26.1987 7.98093 25.9515 7.98093C25.7043 7.98093 25.5039 8.18463 25.5039 8.43603V24.0607H24.161C23.9138 24.0607 23.7134 24.2644 23.7134 24.5158V25.8811H4.61438V24.5158C4.61438 24.2644 4.41396 24.0607 4.16675 24.0607H2.82386V4.64324H4.16675C4.41396 4.64324 4.61438 4.43954 4.61438 4.18814V2.82285H23.7134V4.18814C23.7134 4.43954 23.9138 4.64324 24.161 4.64324H25.5039V6.61563C25.5039 6.86697 25.7043 7.07073 25.9515 7.07073ZM24.6086 24.9709H27.2944V27.7015H24.6086V24.9709ZM3.71912 27.7015H1.03333V24.9709H3.71912V27.7015ZM3.71912 3.73304H1.03333V1.00246H3.71912V3.73304ZM24.6086 1.00246H27.2944V3.73304H24.6086V1.00246Z" fill="#9DA8BE"/>
<path d="M22.2213 6.61561C22.2213 6.36422 22.0209 6.16051 21.7737 6.16051H6.5542C6.30699 6.16051 6.10657 6.36422 6.10657 6.61561V14.3519C6.10657 14.6033 6.30699 14.807 6.5542 14.807H21.7737C22.0209 14.807 22.2213 14.6033 22.2213 14.3519V6.61561ZM7.00183 7.35196L13.163 10.4838L7.00183 13.6156V7.35196ZM8.45043 7.07071H19.8774L14.1639 9.97496L8.45043 7.07071ZM14.1639 10.9926L19.8775 13.8968H8.45043L14.1639 10.9926ZM15.1649 10.4838L21.3261 7.35196V13.6156L15.1649 10.4838Z" fill="#9DA8BE"/>
<path d="M13.2687 21.6336H6.5542C6.30699 21.6336 6.10657 21.8373 6.10657 22.0887C6.10657 22.3401 6.30699 22.5438 6.5542 22.5438H13.2687C13.5159 22.5438 13.7163 22.3401 13.7163 22.0887C13.7163 21.8373 13.5159 21.6336 13.2687 21.6336Z" fill="#9DA8BE"/>
<path d="M21.7737 21.6336H15.0592C14.812 21.6336 14.6116 21.8373 14.6116 22.0887C14.6116 22.3401 14.812 22.5438 15.0592 22.5438H21.7737C22.0209 22.5438 22.2213 22.3401 22.2213 22.0887C22.2213 21.8373 22.0209 21.6336 21.7737 21.6336Z" fill="#9DA8BE"/>
<path d="M13.2687 19.6994H6.5542C6.30699 19.6994 6.10657 19.9031 6.10657 20.1545C6.10657 20.4059 6.30699 20.6096 6.5542 20.6096H13.2687C13.5159 20.6096 13.7163 20.4059 13.7163 20.1545C13.7163 19.9031 13.5159 19.6994 13.2687 19.6994Z" fill="#9DA8BE"/>
<path d="M21.7737 19.6994H15.0592C14.812 19.6994 14.6116 19.9031 14.6116 20.1545C14.6116 20.4059 14.812 20.6096 15.0592 20.6096H21.7737C22.0209 20.6096 22.2213 20.4059 22.2213 20.1545C22.2213 19.9031 22.0209 19.6994 21.7737 19.6994Z" fill="#9DA8BE"/>
<path d="M13.2687 17.7652H6.5542C6.30699 17.7652 6.10657 17.9689 6.10657 18.2203C6.10657 18.4717 6.30699 18.6754 6.5542 18.6754H13.2687C13.5159 18.6754 13.7163 18.4717 13.7163 18.2203C13.7163 17.9689 13.5159 17.7652 13.2687 17.7652Z" fill="#9DA8BE"/>
<path d="M21.7737 17.7652H15.0592C14.812 17.7652 14.6116 17.9689 14.6116 18.2203C14.6116 18.4717 14.812 18.6754 15.0592 18.6754H21.7737C22.0209 18.6754 22.2213 18.4717 22.2213 18.2203C22.2213 17.9689 22.0209 17.7652 21.7737 17.7652Z" fill="#9DA8BE"/>
<path d="M21.7737 15.831H6.5542C6.30699 15.831 6.10657 16.0347 6.10657 16.2861C6.10657 16.5375 6.30699 16.7412 6.5542 16.7412H21.7737C22.0209 16.7412 22.2213 16.5375 22.2213 16.2861C22.2213 16.0347 22.0209 15.831 21.7737 15.831Z" fill="#9DA8BE"/>
</g>
<defs>
<clipPath id="clip0">
<rect width="28.0516" height="28.5195" fill="white" transform="translate(0.138062 0.0922623)"/>
</clipPath>
</defs>
</svg>
