<svg width="22" height="29" viewBox="0 0 22 29" fill="none" xmlns="http://www.w3.org/2000/svg">
<g clip-path="url(#clip0)">
<path d="M2.06269 20.9441H2.77226V19.9996H2.06269C1.67074 19.9996 1.35312 19.5769 1.35312 19.0552V2.05539C1.35312 1.53371 1.67074 1.11095 2.06269 1.11095H17.6732C18.0652 1.11095 18.3828 1.53371 18.3828 2.05539V2.99982H19.0923V2.05539C19.0923 1.01226 18.4569 0.166519 17.6732 0.166519H2.06269C1.27897 0.166519 0.643555 1.01226 0.643555 2.05539V19.0552C0.643555 20.0983 1.27897 20.9441 2.06269 20.9441Z" fill="#9DA8BE" stroke="#9DA8BE" stroke-width="0.546133"/>
<path d="M2.06274 2.0554H2.77231V2.99984H2.06274V2.0554Z" fill="#9DA8BE" stroke="#9DA8BE" stroke-width="0.546133"/>
<path d="M3.48181 2.0554H4.19138V2.99984H3.48181V2.0554Z" fill="#9DA8BE" stroke="#9DA8BE" stroke-width="0.546133"/>
<path d="M4.901 2.0554H5.61057V2.99984H4.901V2.0554Z" fill="#9DA8BE" stroke="#9DA8BE" stroke-width="0.546133"/>
<path d="M20.5115 3.94429H4.90095C4.11723 3.94429 3.48181 4.79003 3.48181 5.83316V22.833C3.48181 23.8761 4.11723 24.7218 4.90095 24.7218H20.5115C21.2952 24.7218 21.9306 23.8761 21.9306 22.833V5.83316C21.9306 4.79003 21.2952 3.94429 20.5115 3.94429ZM21.221 22.833C21.221 23.3547 20.9034 23.7774 20.5115 23.7774H4.90095C4.509 23.7774 4.19138 23.3547 4.19138 22.833V5.83316C4.19138 5.31148 4.509 4.88872 4.90095 4.88872H20.5115C20.9034 4.88872 21.221 5.31148 21.221 5.83316V22.833Z" fill="#9DA8BE" stroke="#9DA8BE" stroke-width="0.546133"/>
<path d="M4.901 5.83318H5.61057V6.77761H4.901V5.83318Z" fill="#9DA8BE" stroke="#9DA8BE" stroke-width="0.546133"/>
<path d="M6.32007 5.83318H7.02964V6.77761H6.32007V5.83318Z" fill="#9DA8BE" stroke="#9DA8BE" stroke-width="0.546133"/>
<path d="M7.73926 5.83318H8.44883V6.77761H7.73926V5.83318Z" fill="#9DA8BE" stroke="#9DA8BE" stroke-width="0.546133"/>
<path d="M4.901 7.72206H20.5115V8.6665H4.901V7.72206Z" fill="#9DA8BE" stroke="#9DA8BE" stroke-width="0.546133"/>
<path d="M5.6106 15.7496H7.7393V16.6941H5.6106V15.7496Z" fill="#9DA8BE" stroke="#9DA8BE" stroke-width="0.546133"/>
<path d="M5.6106 18.1108H13.0611V19.0552H5.6106V18.1108Z" fill="#9DA8BE" stroke="#9DA8BE" stroke-width="0.546133"/>
<path d="M5.6106 20.4719H9.51322V21.4163H5.6106V20.4719Z" fill="#9DA8BE" stroke="#9DA8BE" stroke-width="0.546133"/>
<path d="M11.9967 13.3886H15.5445V14.333H11.9967V13.3886Z" fill="#9DA8BE" stroke="#9DA8BE" stroke-width="0.546133"/>
<path d="M17.3184 18.1108H19.8018V19.0552H17.3184V18.1108Z" fill="#9DA8BE" stroke="#9DA8BE" stroke-width="0.546133"/>
<path d="M14.1254 20.4719H19.8019V21.4163H14.1254V20.4719Z" fill="#9DA8BE" stroke="#9DA8BE" stroke-width="0.546133"/>
<path d="M8.80359 15.7496H14.1254V16.6941H8.80359V15.7496Z" fill="#9DA8BE" stroke="#9DA8BE" stroke-width="0.546133"/>
<path d="M11.9967 11.0275H14.4802V11.972H11.9967V11.0275Z" fill="#9DA8BE" stroke="#9DA8BE" stroke-width="0.546133"/>
<path d="M15.1897 11.0275H19.8019V11.972H15.1897V11.0275Z" fill="#9DA8BE" stroke="#9DA8BE" stroke-width="0.546133"/>
<path d="M10.2228 20.4719H13.4158V21.4163H10.2228V20.4719Z" fill="#9DA8BE" stroke="#9DA8BE" stroke-width="0.546133"/>
<path d="M14.835 15.7496H19.8019V16.6941H14.835V15.7496Z" fill="#9DA8BE" stroke="#9DA8BE" stroke-width="0.546133"/>
<path d="M16.254 13.3886H19.8019V14.333H16.254V13.3886Z" fill="#9DA8BE" stroke="#9DA8BE" stroke-width="0.546133"/>
<path d="M13.7706 18.1108H16.6089V19.0552H13.7706V18.1108Z" fill="#9DA8BE" stroke="#9DA8BE" stroke-width="0.546133"/>
<path d="M6.77879 10.6936L5.71444 12.1103C5.57598 12.2948 5.57598 12.5935 5.71444 12.778L6.77879 14.1947L7.28046 13.5269L6.46694 12.4441L7.28046 11.3613L6.77879 10.6936Z" fill="#9DA8BE" stroke="#9DA8BE" stroke-width="0.546133"/>
<path d="M10.1187 14.1947L11.1831 12.778C11.3215 12.5935 11.3215 12.2948 11.1831 12.1103L10.1187 10.6936L9.61707 11.3613L10.4306 12.4441L9.61707 13.5269L10.1187 14.1947Z" fill="#9DA8BE" stroke="#9DA8BE" stroke-width="0.546133"/>
<path d="M7.74976 14.2187L8.45968 10.441L9.14787 10.6701L8.43786 14.4476L7.74976 14.2187Z" fill="#9DA8BE" stroke="#9DA8BE" stroke-width="0.546133"/>
<path d="M16.6089 25.6662H8.80362C8.70952 25.6662 8.61931 25.716 8.55279 25.8046L7.84322 26.749C7.70477 26.9335 7.70477 27.2322 7.84322 27.4167L8.55279 28.3612C8.61931 28.4497 8.70952 28.4995 8.80362 28.4995H16.6089C17.1966 28.4995 17.6732 27.8651 17.6732 27.0829C17.6732 26.3006 17.1966 25.6662 16.6089 25.6662ZM15.5445 27.5551H8.9505L8.59572 27.0829L8.9505 26.6106H15.5445V27.5551ZM16.6089 27.5551H16.2541V26.6106H16.6089C16.8049 26.6106 16.9637 26.822 16.9637 27.0829C16.9637 27.3438 16.8049 27.5551 16.6089 27.5551Z" fill="#9DA8BE" stroke="#9DA8BE" stroke-width="0.546133"/>
</g>
<defs>
<clipPath id="clip0">
<rect width="21.2871" height="28.333" fill="white" transform="translate(0.643555 0.166519)"/>
</clipPath>
</defs>
</svg>
