<svg width="67" height="71" viewBox="0 0 67 71" fill="none" xmlns="http://www.w3.org/2000/svg">
<g clip-path="url(#clip0)">
<path d="M0.0294189 61.8964V68.6307C0.0294189 69.7743 0.905274 70.7016 1.98595 70.7016H8.34571C10.8153 70.7016 13.0358 69.5553 14.5597 67.7401L2.82716 55.3181C1.11214 56.932 0.0294189 59.2823 0.0294189 61.8964Z" fill="#0D0139"/>
<path d="M16.233 63.6529L22.3181 70.0948C22.6849 70.4838 23.1827 70.7017 23.7014 70.7017C24.2201 70.7017 24.7184 70.4832 25.0848 70.0948C27.2191 67.8351 29.1986 65.4266 30.9589 62.9598C26.7738 63.585 22.9682 63.7511 20.1139 63.7511C18.6527 63.7506 17.3468 63.7101 16.233 63.6529Z" fill="#0D0139"/>
<path d="M6.68928 53.5483C6.54254 50.3694 6.5084 45.7281 7.03982 40.494C7.12644 39.6385 7.22732 38.7943 7.33942 37.9582C5.00992 39.8214 2.73596 41.9165 0.602622 44.1756C-0.161649 44.9842 -0.161649 46.2956 0.602622 47.1048L6.68928 53.5483Z" fill="#0D0139"/>
<path d="M10.9305 40.9369C10.0087 50.0101 10.8673 57.1069 10.904 57.4046C11.0196 58.3346 11.7105 59.0661 12.5889 59.1885C12.7122 59.2053 15.6562 59.6082 20.1145 59.6082H20.1165C23.2194 59.6082 27.5045 59.4027 32.1421 58.5752L11.4823 36.7024C11.2616 38.0817 11.0767 39.4934 10.9305 40.9369Z" fill="#0D0139"/>
<path d="M30.6054 35.965C30.0082 35.965 29.4467 36.2109 29.0249 36.6581C28.1536 37.58 28.1536 39.0812 29.0249 40.0037C29.4467 40.4503 30.0082 40.6963 30.6054 40.6963C31.202 40.6963 31.7635 40.4503 32.1854 40.0037C32.6078 39.557 32.8401 38.9626 32.8401 38.3309C32.8401 37.6987 32.6078 37.1048 32.1854 36.6576C31.7635 36.2109 31.202 35.965 30.6054 35.965V35.965Z" fill="#0D0139"/>
<path d="M66.4135 2.20304C66.2978 1.2736 65.6069 0.542128 64.7291 0.419677C64.6063 0.402416 61.6633 0 57.2046 0C54.8353 0 51.7762 0.119214 48.3971 0.544286L66.2984 19.4972C66.3289 19.2226 66.3595 18.9481 66.3875 18.6713C67.3087 9.5981 66.4507 2.5008 66.4135 2.20304Z" fill="#0D0139"/>
<path d="M45.5902 29.269C47.3067 29.269 48.9203 28.5612 50.1345 27.2763C52.6398 24.6234 52.6398 20.3074 50.134 17.655C48.9203 16.3701 47.3067 15.6624 45.5902 15.6624C43.8736 15.6624 42.26 16.3701 41.0463 17.655C38.541 20.3074 38.541 24.6234 41.0463 27.2763C42.2605 28.5612 43.8741 29.269 45.5902 29.269V29.269Z" fill="#0D0139"/>
<path d="M40.1486 2.16631C32.726 4.21561 26.6928 7.65826 22.2167 12.3966C18.7653 16.0513 16.0246 20.7179 14.0711 26.2676C13.447 28.0417 12.9038 29.9093 12.4402 31.8577L36.7206 57.5637C36.8704 57.5238 37.0202 57.4839 37.17 57.4424C44.5921 55.3925 50.6247 51.9504 55.1008 47.2115C58.5528 43.5574 61.2934 38.8902 63.2464 33.3411C64.2038 30.6202 64.9742 27.6836 65.5509 24.5646L43.6092 1.33451C42.4674 1.57024 41.3098 1.84535 40.1486 2.16631V2.16631ZM34.9526 42.9327C33.7914 44.1621 32.2476 44.8391 30.6054 44.8391C28.9632 44.8391 27.4194 44.1621 26.2582 42.9333C23.8615 40.3953 23.8615 36.2664 26.2577 33.7284C27.4194 32.4991 28.9632 31.8221 30.6054 31.8221C32.2476 31.8221 33.7914 32.4991 34.9526 33.7279C36.1132 34.9578 36.7532 36.5923 36.7532 38.3303C36.7532 40.0689 36.1132 41.7034 34.9526 42.9327V42.9327ZM52.9007 14.7259C56.9315 18.9933 56.932 25.9374 52.9012 30.2054C50.9483 32.273 48.3518 33.4118 45.5902 33.4118C42.8286 33.4118 40.2327 32.273 38.2797 30.2059C34.2489 25.938 34.2489 18.9939 38.2797 14.7259C40.2322 12.6582 42.8281 11.52 45.5902 11.52C48.3518 11.52 50.9483 12.6582 52.9007 14.7259Z" fill="#0D0139"/>
</g>
<defs>
<clipPath id="clip0">
<rect width="66.7831" height="70.7043" fill="white" transform="translate(0.0294189)"/>
</clipPath>
</defs>
</svg>
