<svg width="28" height="28" viewBox="0 0 28 28" fill="none" xmlns="http://www.w3.org/2000/svg">
<g clip-path="url(#clip0)">
<path d="M28.0008 5.31903C26.9703 5.77567 25.8645 6.08537 24.7027 6.22363C25.889 5.51324 26.797 4.38647 27.2274 3.04796C26.1147 3.70582 24.8864 4.18352 23.5776 4.44247C22.5296 3.32444 21.0388 2.62805 19.3854 2.62805C16.2132 2.62805 13.6412 5.20007 13.6412 8.37048C13.6412 8.82012 13.6919 9.25929 13.7899 9.67925C9.01685 9.43951 4.78442 7.15271 1.9517 3.67782C1.45653 4.52469 1.17484 5.51146 1.17484 6.5648C1.17484 8.55769 2.18966 10.3161 3.72938 11.3449C2.78804 11.3134 1.9027 11.0545 1.12763 10.624V10.6958C1.12763 13.4777 3.10826 15.7995 5.73449 16.328C5.25332 16.4574 4.74594 16.5292 4.22103 16.5292C3.85012 16.5292 3.49143 16.4924 3.13974 16.4224C3.87108 18.7058 5.99171 20.3662 8.50425 20.4117C6.53936 21.9514 4.06182 22.8665 1.37084 22.8665C0.907194 22.8665 0.450502 22.8385 0.000854492 22.7878C2.54314 24.4202 5.56132 25.3721 8.80521 25.3721C19.3715 25.3721 25.1471 16.6202 25.1471 9.03012L25.1279 8.28652C26.2564 7.48161 27.2327 6.47032 28.0008 5.31903Z" fill="#9DA8BE"/>
</g>
<defs>
<clipPath id="clip0">
<rect width="28" height="28" fill="white"/>
</clipPath>
</defs>
</svg>
