<svg width="51" height="52" viewBox="0 0 51 52" fill="none" xmlns="http://www.w3.org/2000/svg">
<g clip-path="url(#clip0)" filter="url(#filter0_d)">
<path d="M27.941 17.3156C27.8011 14.6864 27.1077 12.1072 25.8987 9.71955C25.7817 9.50508 25.7747 9.25406 25.8802 9.03451C25.9854 8.81495 26.1917 8.64953 26.4434 8.58356C28.3211 8.09168 29.553 7.32848 30.1062 6.31563C30.4107 5.73681 30.5074 5.08423 30.3834 4.45196C25.6341 4.05988 24.9377 6.96955 24.9093 7.09844C24.8214 7.50101 24.4181 7.77876 23.9719 7.74357C23.8911 7.73715 23.811 7.73072 23.7302 7.73072C19.8821 7.53721 17.6169 8.26184 16.7503 9.93809C16.5119 10.4185 16.4617 10.9594 16.6079 11.4699C16.6492 11.6576 16.7023 11.8427 16.768 12.0244C17.0138 12.2578 17.0836 12.6032 16.9444 12.9016C16.8053 13.1996 16.485 13.3928 16.1311 13.3911C16.072 13.387 16.0133 13.3786 15.9554 13.366V13.3731C15.9078 13.364 15.8605 13.3518 15.8148 13.3369C14.6752 13.0731 13.609 12.592 12.6864 11.9246C12.3169 12.4033 11.9652 12.8921 11.6132 13.4104C10.5097 15.3187 8.89326 16.9378 6.91664 18.1137C3.52913 19.977 3.77344 20.4107 4.42777 21.5683L4.61266 21.8995C5.14889 22.8833 6.57453 25.497 8.243 25.7453C9.01763 25.7886 9.76496 25.4777 10.2396 24.9148C14.1101 21.3603 17.0478 20.6468 20.5305 20.6468C23.3962 20.5203 26.0777 19.315 27.941 17.3156ZM7.33625 22.2591C6.95797 22.2591 5.80691 22.2591 5.44634 21.4611C5.25961 20.9699 5.41276 20.4242 5.83495 20.0768C6.08664 19.8464 6.46492 19.7774 6.79337 19.9022C7.12183 20.0267 7.33625 20.3207 7.33625 20.6468C7.82191 20.6468 8.21569 21.0078 8.21569 21.453C8.21569 21.8982 7.82191 22.2591 7.33625 22.2591ZM18.2 15.613C18.0782 15.5186 17.987 15.3958 17.9361 15.2574C17.6741 14.4543 17.7689 13.5893 18.2 12.8501C18.8635 11.8701 19.9511 11.1959 21.19 10.9956C21.6616 10.8877 22.1392 11.1505 22.2569 11.5825C22.3746 12.0149 22.0879 12.4526 21.6166 12.5606C20.8649 12.6634 20.1906 13.0416 19.7485 13.6086C19.6001 13.8583 19.5311 14.1407 19.5488 14.4246C19.7529 14.4127 19.9526 14.363 20.1345 14.2777C20.5692 14.0785 21.0977 14.2399 21.3151 14.638C21.5325 15.0365 21.3564 15.521 20.9217 15.7202C20.5069 15.9178 20.0474 16.0237 19.5798 16.0298C19.0812 16.0406 18.5937 15.8934 18.2 15.613Z" fill="#0D0139"/>
<path d="M12.9775 9.64549C13.3163 10.3904 13.9688 10.9787 14.7873 11.2771C14.708 10.5832 14.8368 9.8823 15.1593 9.25036C16.8462 5.98615 21.4848 6.01761 23.4371 6.10625C23.6297 5.69894 23.8762 5.31497 24.1715 4.96315C23.2086 4.04806 21.9103 3.4919 20.5268 3.40225C20.4611 3.40225 20.3939 3.40225 20.3282 3.40225C18.5981 3.40225 16.8049 4.24224 14.994 5.90124C13.8614 6.93642 12.5911 8.42966 12.9775 9.64549Z" fill="#E92042"/>
<path d="M27.3305 21.1942C27.501 20.7355 27.6327 20.2656 27.7246 19.7882C25.7185 21.2439 23.2754 22.1039 20.7219 22.2527C21.6242 23.4334 22.1018 24.8424 22.0878 26.2838C24.5239 25.319 26.4197 23.4787 27.3305 21.1942Z" fill="#0D0139"/>
<path d="M13.7503 4.75812C13.8515 4.66543 13.9537 4.58661 14.0548 4.49763L4.03992 0L11.9165 6.87686C12.4258 6.10115 13.0421 5.38904 13.7503 4.75812Z" fill="#0D0139"/>
<path d="M27.7483 34.3789C28.8613 32.8502 30.2895 31.5355 31.9525 30.5092C35.0525 28.4395 37.7307 26.6523 38.0772 23.1411C38.24 20.8586 37.7805 18.5748 36.7401 16.4956C35.2222 13.3397 32.5023 10.7984 29.0886 9.34711C28.6997 9.53858 28.297 9.7057 27.8837 9.84778C28.8012 11.8633 30.7649 17.0843 28.9868 21.7304C27.9018 24.4872 25.6045 26.6996 22.6543 27.8292C22.0498 28.087 21.4641 28.3799 20.9006 28.7064C18.5324 30.0207 16.7056 32.0166 15.7054 34.383C14.6385 37.0207 15.0246 40.8921 17.8426 42.8715C18.9398 43.5802 20.2429 43.973 21.5848 44C20.0433 41.5007 17.599 35.9435 22.5893 31.3691C22.9344 31.0636 23.4828 31.068 23.8219 31.3792C24.1615 31.6901 24.1663 32.1929 23.8326 32.5092C18.9612 36.9746 22.5277 42.5183 23.6219 43.9824C23.7371 43.975 23.8452 43.9719 23.9629 43.9621C24.9568 43.887 25.9425 43.7422 26.912 43.5284C27.4194 43.4202 27.9339 43.3082 28.4292 43.156C27.5844 42.3789 27.0389 41.3705 26.8758 40.2835C26.3307 38.2855 26.643 36.1719 27.7483 34.3789ZM30.67 25.6018C30.8398 25.5041 34.4078 23.3444 32.0525 16.8705C31.899 16.4476 32.1488 15.9905 32.6101 15.8498C33.0714 15.7091 33.57 15.9381 33.7235 16.361C36.553 24.1407 31.7886 26.8691 31.583 26.9811C31.1675 27.2118 30.6265 27.09 30.3748 26.7091C30.1235 26.3282 30.2563 25.8322 30.6719 25.6018H30.67Z" fill="#0D0139"/>
<path d="M39.7473 38.5C38.9232 38.1553 38.3242 37.4753 38.1301 36.6644C38.0707 36.2588 38.1197 35.8457 38.2733 35.4614C38.7645 34.3376 39.5273 33.3302 40.5045 32.5155C40.7869 32.2439 41.0673 31.9739 41.3249 31.6959C42.1929 30.7811 42.989 29.8112 43.7068 28.7933C45.4181 26.3995 46.2344 23.5609 46.0329 20.7047C45.2767 11.6874 33.1177 8.2811 31.1521 7.78854C31.0119 7.95871 30.8598 8.12007 30.6974 8.27231C34.0842 9.95329 36.7712 12.6113 38.3427 15.8346C39.5136 18.1641 40.024 20.727 39.8266 23.2855C39.407 27.5237 36.1413 29.7036 32.9841 31.8109C31.5068 32.7189 30.235 33.8799 29.2382 35.23C28.3768 36.6847 28.1503 38.385 28.6042 39.9868C28.6894 40.8457 29.1493 41.6367 29.8792 42.1803C31.2805 42.9015 32.8833 43.2253 34.4853 43.1099C34.423 43.0616 34.3577 43.0196 34.2964 42.9672C32.7017 41.5967 32.2319 39.1925 32.9014 35.8204C32.9881 35.3823 33.4461 35.0917 33.924 35.1712C34.4023 35.251 34.719 35.6708 34.6322 36.1089C34.0842 38.8684 34.3842 40.8332 35.4984 41.7902C36.4509 42.4449 37.6702 42.6806 38.8302 42.435C39.0309 42.3917 39.242 42.4154 39.4254 42.502C40.4994 42.2584 41.5272 41.8677 42.4738 41.3427C43.7204 40.6502 44.7246 39.6448 45.3671 38.4452L45.2793 38.4905C43.551 39.3339 41.4792 39.3376 39.7473 38.5Z" fill="#E92042"/>
</g>
<defs>
<filter id="filter0_d" x="-3" y="0" width="56" height="52" filterUnits="userSpaceOnUse" color-interpolation-filters="sRGB">
<feFlood flood-opacity="0" result="BackgroundImageFix"/>
<feColorMatrix in="SourceAlpha" type="matrix" values="0 0 0 0 0 0 0 0 0 0 0 0 0 0 0 0 0 0 127 0"/>
<feOffset dy="4"/>
<feGaussianBlur stdDeviation="2"/>
<feColorMatrix type="matrix" values="0 0 0 0 0 0 0 0 0 0 0 0 0 0 0 0 0 0 0.25 0"/>
<feBlend mode="normal" in2="BackgroundImageFix" result="effect1_dropShadow"/>
<feBlend mode="normal" in="SourceGraphic" in2="effect1_dropShadow" result="shape"/>
</filter>
<clipPath id="clip0">
<rect width="48" height="44" fill="white" transform="translate(1)"/>
</clipPath>
</defs>
</svg>
